<svg width="33" height="14" xmlns="http://www.w3.org/2000/svg" xmlns:xlink="http://www.w3.org/1999/xlink" overflow="hidden"><defs><clipPath id="clip0"><rect x="590" y="338" width="33" height="14"/></clipPath></defs><g clip-path="url(#clip0)" transform="translate(-590 -338)"><path d="M16.5134 6.08132C16.5281 6.25371 16.5468 6.52727 16.56 6.91059 16.5825 7.55378 16.5485 7.9478 16.4215 8.72433 15.9068 11.8658 13.5169 13.8173 10.185 13.8173 6.4419 13.8173 3.39637 10.7192 3.39637 6.91059 3.39637 3.10167 6.4419 0.00285096 10.185 0.00285096 12.1919 0.00285096 14.0856 0.900492 15.3796 2.46572L15.571 2.69709 15.3237 2.86485 13.1282 4.35444 12.9447 4.47885 12.7906 4.31835C12.0968 3.59638 11.1718 3.26069 10.185 3.26069 8.1737 3.26069 6.53713 4.86382 6.53713 6.91059 6.53713 8.95667 8.1737 10.6216 10.185 10.6216 11.8854 10.6216 13.0132 9.64454 13.2343 8.5544L10.4604 8.5544 10.4604 6.08132 16.5134 6.08132ZM30.7701 6.08309C30.7847 6.25548 30.8033 6.52885 30.8166 6.91236 30.8391 7.55537 30.8052 7.94957 30.6781 8.72592 30.1633 11.8676 27.7736 13.8191 24.4414 13.8191 20.6981 13.8191 17.6531 10.7209 17.6531 6.91217 17.6531 3.10326 20.6981 0.00461428 24.4414 0.00461428 26.4484 0.00461428 28.3418 0.902256 29.6363 2.46732L29.8277 2.69869 29.5803 2.86662 27.3849 4.35602 27.2014 4.48047 27.0473 4.31993C26.353 3.59816 25.428 3.26228 24.4414 3.26228 22.4302 3.26228 20.7937 4.86544 20.7937 6.91217 20.7937 8.95844 22.4302 10.6234 24.4414 10.6234 26.142 10.6234 27.2701 9.64612 27.4908 8.55602L24.7169 8.55602 24.7169 6.08309 30.7701 6.08309ZM1.43764 11.0128C2.19728 11.0128 2.81535 11.6415 2.81535 12.4144 2.81535 13.1869 2.19728 13.8156 1.43764 13.8156 0.678319 13.8156 0.0604007 13.1869 0.0604007 12.4144 0.0604007 11.6415 0.678319 11.0128 1.43764 11.0128Z" fill="#1EA1F7" transform="matrix(1.06071 0 0 1 590 338)"/></g></svg>